<svg xmlns="http://www.w3.org/2000/svg" width="31.965" height="32.309" viewBox="0 0 31.965 32.309">
  <path id="certificat" d="M14.979-6.642a1.8,1.8,0,0,0,.462-1.741,2.857,2.857,0,0,1,0-2.324,1.813,1.813,0,0,0-.462-1.749c-.9-.92-.866-.768-1.144-2.016a1.877,1.877,0,0,0-1.247-1.271A2.78,2.78,0,0,1,10.6-16.9a1.788,1.788,0,0,0-1.707-.472,2.738,2.738,0,0,1-2.285,0A1.762,1.762,0,0,0,4.9-16.9a2.8,2.8,0,0,1-1.983,1.163,1.8,1.8,0,0,0-1.251,1.271A2.8,2.8,0,0,1,.521-12.458a1.829,1.829,0,0,0-.459,1.749,2.888,2.888,0,0,1,0,2.324A1.82,1.82,0,0,0,.521-6.644,2.811,2.811,0,0,1,1.664-4.631,1.78,1.78,0,0,0,2.915-3.352a3.662,3.662,0,0,1,.961.3V3.875L7.751,1.938l3.874,1.938V-3.052a3.535,3.535,0,0,1,.961-.3,1.878,1.878,0,0,0,1.248-1.279C14.113-5.885,14.077-5.728,14.979-6.642ZM7.75-5.812A3.872,3.872,0,0,1,3.876-9.687,3.873,3.873,0,0,1,7.75-13.562a3.873,3.873,0,0,1,3.874,3.875A3.871,3.871,0,0,1,7.75-5.812ZM29.868-21.471,25.349-25.99a3.893,3.893,0,0,0-2.741-1.135H11.571A3.875,3.875,0,0,0,7.7-23.25v4.174a3.923,3.923,0,0,1,2.906-.046l.054-4.121a.969.969,0,0,1,.969-.969h9.688v4.836a1.938,1.938,0,0,0,1.938,1.938h4.789V0a.969.969,0,0,1-.969.969H13.563l-.054,2.906H27.071A3.886,3.886,0,0,0,30.946,0V-18.733A3.613,3.613,0,0,0,29.868-21.471Z" transform="translate(0.514 27.625)" fill="#00b4b1" stroke="rgba(0,0,0,0)" stroke-width="1"/>
</svg>
