<svg xmlns="http://www.w3.org/2000/svg" width="11.5" height="13" viewBox="0 0 11.5 13">
  <path id="course_content_icon" d="M4.688-1.125a.563.563,0,0,0,.563-.562v-8.25a.562.562,0,0,0-.562-.562H-3.375A1.877,1.877,0,0,0-5.25-8.625v8.25A1.877,1.877,0,0,0-3.375,1.5H4.688a.563.563,0,0,0,0-1.125H4.5v-1.5ZM3.375.375h-6.75a.751.751,0,0,1-.75-.75.751.751,0,0,1,.75-.75h6.75Zm.75-2.625h-7.5a1.857,1.857,0,0,0-.75.157V-8.625a.751.751,0,0,1,.75-.75h7.5Zm-5.813-4.5H2.438A.561.561,0,0,0,3-7.312a.561.561,0,0,0-.562-.562H-1.688a.564.564,0,0,0-.563.563A.564.564,0,0,0-1.688-6.75Zm0,1.875H2.438A.561.561,0,0,0,3-5.437.561.561,0,0,0,2.438-6H-1.688a.564.564,0,0,0-.563.563A.564.564,0,0,0-1.688-4.875Z" transform="translate(5.75 11)" fill="#274f60" stroke="rgba(0,0,0,0)" stroke-width="1"/>
</svg>
