<svg xmlns="http://www.w3.org/2000/svg" width="101.251" height="90.245" viewBox="0 0 101.251 90.245">
  <path id="dot-img" d="M184.612,111.743a1.1,1.1,0,1,0,1.1,1.1A1.1,1.1,0,0,0,184.612,111.743Zm11.006-11.006a1.1,1.1,0,1,0,1.1,1.1A1.1,1.1,0,0,0,195.617,100.738Zm0,44.022a1.1,1.1,0,1,0,1.1,1.1A1.1,1.1,0,0,0,195.617,144.76Zm0-22.011a1.1,1.1,0,1,0,1.1,1.1A1.1,1.1,0,0,0,195.617,122.749Zm0-11.006a1.1,1.1,0,1,0,1.1,1.1A1.1,1.1,0,0,0,195.617,111.743Zm0,22.011a1.1,1.1,0,1,0,1.1,1.1A1.1,1.1,0,0,0,195.617,133.755ZM184.612,89.732a1.1,1.1,0,1,0,1.1,1.1A1.1,1.1,0,0,0,184.612,89.732Zm0,11.006a1.1,1.1,0,1,0,1.1,1.1A1.1,1.1,0,0,0,184.612,100.738Zm0-22.011a1.1,1.1,0,1,0,1.1,1.1A1.1,1.1,0,0,0,184.612,78.727Zm0-11.006a1.1,1.1,0,1,0,1.1,1.1A1.1,1.1,0,0,0,184.612,67.722Zm0-11.006a1.1,1.1,0,1,0,1.1,1.1A1.1,1.1,0,0,0,184.612,56.716Zm22.011,55.027a1.1,1.1,0,1,0,1.1,1.1A1.1,1.1,0,0,0,206.623,111.743Zm0-11.006a1.1,1.1,0,1,0,1.1,1.1A1.1,1.1,0,0,0,206.623,100.738Zm0-22.011a1.1,1.1,0,1,0,1.1,1.1A1.1,1.1,0,0,0,206.623,78.727Zm0,44.022a1.1,1.1,0,1,0,1.1,1.1A1.1,1.1,0,0,0,206.623,122.749ZM195.617,89.732a1.1,1.1,0,1,0,1.1,1.1A1.1,1.1,0,0,0,195.617,89.732Zm11.006,0a1.1,1.1,0,1,0,1.1,1.1A1.1,1.1,0,0,0,206.623,89.732ZM195.617,78.727a1.1,1.1,0,1,0,1.1,1.1A1.1,1.1,0,0,0,195.617,78.727Zm11.006,55.027a1.1,1.1,0,1,0,1.1,1.1A1.1,1.1,0,0,0,206.623,133.755ZM195.617,67.722a1.1,1.1,0,1,0,1.1,1.1A1.1,1.1,0,0,0,195.617,67.722Zm11.006,0a1.1,1.1,0,1,0,1.1,1.1A1.1,1.1,0,0,0,206.623,67.722ZM195.617,56.716a1.1,1.1,0,1,0,1.1,1.1A1.1,1.1,0,0,0,195.617,56.716Zm11.006,88.044a1.1,1.1,0,1,0,1.1,1.1A1.1,1.1,0,0,0,206.623,144.76ZM162.6,100.738a1.1,1.1,0,1,0,1.1,1.1A1.1,1.1,0,0,0,162.6,100.738Zm0-11.006a1.1,1.1,0,1,0,1.1,1.1A1.1,1.1,0,0,0,162.6,89.732Zm11.006,55.028a1.1,1.1,0,1,0,1.1,1.1A1.1,1.1,0,0,0,173.606,144.76ZM162.6,56.716a1.1,1.1,0,1,0,1.1,1.1A1.1,1.1,0,0,0,162.6,56.716Zm0,11.006a1.1,1.1,0,1,0,1.1,1.1A1.1,1.1,0,0,0,162.6,67.722Zm0,11.006a1.1,1.1,0,1,0,1.1,1.1A1.1,1.1,0,0,0,162.6,78.727Zm99.05-19.811a1.1,1.1,0,1,0-1.1-1.1A1.1,1.1,0,0,0,261.65,58.917ZM162.6,144.76a1.1,1.1,0,1,0,1.1,1.1A1.1,1.1,0,0,0,162.6,144.76Zm0-11.006a1.1,1.1,0,1,0,1.1,1.1A1.1,1.1,0,0,0,162.6,133.755Zm0-11.006a1.1,1.1,0,1,0,1.1,1.1A1.1,1.1,0,0,0,162.6,122.749Zm0-11.006a1.1,1.1,0,1,0,1.1,1.1A1.1,1.1,0,0,0,162.6,111.743Zm22.011,22.011a1.1,1.1,0,1,0,1.1,1.1A1.1,1.1,0,0,0,184.612,133.755ZM173.606,56.716a1.1,1.1,0,1,0,1.1,1.1A1.1,1.1,0,0,0,173.606,56.716Zm0,11.006a1.1,1.1,0,1,0,1.1,1.1A1.1,1.1,0,0,0,173.606,67.722Zm11.006,55.027a1.1,1.1,0,1,0,1.1,1.1A1.1,1.1,0,0,0,184.612,122.749Zm0,22.011a1.1,1.1,0,1,0,1.1,1.1A1.1,1.1,0,0,0,184.612,144.76ZM173.606,78.727a1.1,1.1,0,1,0,1.1,1.1A1.1,1.1,0,0,0,173.606,78.727Zm0,44.022a1.1,1.1,0,1,0,1.1,1.1A1.1,1.1,0,0,0,173.606,122.749Zm0-33.017a1.1,1.1,0,1,0,1.1,1.1A1.1,1.1,0,0,0,173.606,89.732Zm0,44.022a1.1,1.1,0,1,0,1.1,1.1A1.1,1.1,0,0,0,173.606,133.755Zm0-22.011a1.1,1.1,0,1,0,1.1,1.1A1.1,1.1,0,0,0,173.606,111.743Zm0-11.006a1.1,1.1,0,1,0,1.1,1.1A1.1,1.1,0,0,0,173.606,100.738Zm66.033,0a1.1,1.1,0,1,0,1.1,1.1A1.1,1.1,0,0,0,239.639,100.738Zm11.006,11.006a1.1,1.1,0,1,0,1.1,1.1A1.1,1.1,0,0,0,250.644,111.743Zm0,11.006a1.1,1.1,0,1,0,1.1,1.1A1.1,1.1,0,0,0,250.644,122.749Zm0-22.011a1.1,1.1,0,1,0,1.1,1.1A1.1,1.1,0,0,0,250.644,100.738Zm0,33.017a1.1,1.1,0,1,0,1.1,1.1A1.1,1.1,0,0,0,250.644,133.755Zm0-44.022a1.1,1.1,0,1,0,1.1,1.1A1.1,1.1,0,0,0,250.644,89.732ZM239.639,56.716a1.1,1.1,0,1,0,1.1,1.1A1.1,1.1,0,0,0,239.639,56.716Zm11.006,88.044a1.1,1.1,0,1,0,1.1,1.1A1.1,1.1,0,0,0,250.644,144.76ZM239.639,78.727a1.1,1.1,0,1,0,1.1,1.1A1.1,1.1,0,0,0,239.639,78.727Zm0,11.005a1.1,1.1,0,1,0,1.1,1.1A1.1,1.1,0,0,0,239.639,89.732Zm0-22.011a1.1,1.1,0,1,0,1.1,1.1A1.1,1.1,0,0,0,239.639,67.722Zm0,44.022a1.1,1.1,0,1,0,1.1,1.1A1.1,1.1,0,0,0,239.639,111.743Zm11.006-33.016a1.1,1.1,0,1,0,1.1,1.1A1.1,1.1,0,0,0,250.644,78.727ZM206.623,56.716a1.1,1.1,0,1,0,1.1,1.1A1.1,1.1,0,0,0,206.623,56.716Zm55.027,55.027a1.1,1.1,0,1,0,1.1,1.1A1.1,1.1,0,0,0,261.65,111.743Zm0-22.011a1.1,1.1,0,1,0,1.1,1.1A1.1,1.1,0,0,0,261.65,89.732Zm0-22.011a1.1,1.1,0,1,0,1.1,1.1A1.1,1.1,0,0,0,261.65,67.722Zm0,11.006a1.1,1.1,0,1,0,1.1,1.1A1.1,1.1,0,0,0,261.65,78.727ZM250.644,67.722a1.1,1.1,0,1,0,1.1,1.1A1.1,1.1,0,0,0,250.644,67.722ZM261.65,144.76a1.1,1.1,0,1,0,1.1,1.1A1.1,1.1,0,0,0,261.65,144.76ZM250.644,56.716a1.1,1.1,0,1,0,1.1,1.1A1.1,1.1,0,0,0,250.644,56.716Zm11.006,66.033a1.1,1.1,0,1,0,1.1,1.1A1.1,1.1,0,0,0,261.65,122.749Zm0,11.006a1.1,1.1,0,1,0,1.1,1.1A1.1,1.1,0,0,0,261.65,133.755Zm0-33.017a1.1,1.1,0,1,0,1.1,1.1A1.1,1.1,0,0,0,261.65,100.738Zm-44.022,0a1.1,1.1,0,1,0,1.1,1.1A1.1,1.1,0,0,0,217.628,100.738Zm0-22.011a1.1,1.1,0,1,0,1.1,1.1A1.1,1.1,0,0,0,217.628,78.727Zm0,11.005a1.1,1.1,0,1,0,1.1,1.1A1.1,1.1,0,0,0,217.628,89.732Zm0-33.016a1.1,1.1,0,1,0,1.1,1.1A1.1,1.1,0,0,0,217.628,56.716Zm0,11.006a1.1,1.1,0,1,0,1.1,1.1A1.1,1.1,0,0,0,217.628,67.722Zm11.006,77.039a1.1,1.1,0,1,0,1.1,1.1A1.1,1.1,0,0,0,228.634,144.76Zm-11.006,0a1.1,1.1,0,1,0,1.1,1.1A1.1,1.1,0,0,0,217.628,144.76Zm0-11.006a1.1,1.1,0,1,0,1.1,1.1A1.1,1.1,0,0,0,217.628,133.755Zm0-22.011a1.1,1.1,0,1,0,1.1,1.1A1.1,1.1,0,0,0,217.628,111.743Zm0,11.006a1.1,1.1,0,1,0,1.1,1.1A1.1,1.1,0,0,0,217.628,122.749Zm11.006,11.006a1.1,1.1,0,1,0,1.1,1.1A1.1,1.1,0,0,0,228.634,133.755Zm11.005-11.006a1.1,1.1,0,1,0,1.1,1.1A1.1,1.1,0,0,0,239.639,122.749ZM228.634,56.716a1.1,1.1,0,1,0,1.1,1.1A1.1,1.1,0,0,0,228.634,56.716Zm0,11.006a1.1,1.1,0,1,0,1.1,1.1A1.1,1.1,0,0,0,228.634,67.722Zm11.005,77.039a1.1,1.1,0,1,0,1.1,1.1A1.1,1.1,0,0,0,239.639,144.76Zm0-11.006a1.1,1.1,0,1,0,1.1,1.1A1.1,1.1,0,0,0,239.639,133.755ZM228.634,78.727a1.1,1.1,0,1,0,1.1,1.1A1.1,1.1,0,0,0,228.634,78.727Zm0,44.022a1.1,1.1,0,1,0,1.1,1.1A1.1,1.1,0,0,0,228.634,122.749Zm0-11.006a1.1,1.1,0,1,0,1.1,1.1A1.1,1.1,0,0,0,228.634,111.743Zm0-22.011a1.1,1.1,0,1,0,1.1,1.1A1.1,1.1,0,0,0,228.634,89.732Zm0,11.006a1.1,1.1,0,1,0,1.1,1.1A1.1,1.1,0,0,0,228.634,100.738Z" transform="translate(-161.5 -56.716)" fill="#274f60" opacity="0.4"/>
</svg>
