<svg xmlns="http://www.w3.org/2000/svg" width="92.09" height="148.783" viewBox="0 0 92.09 148.783">
  <g id="dot_bg2" transform="translate(1477.591 -137.217) rotate(90)" opacity="0.8">
    <g id="Group_1099" data-name="Group 1099" transform="translate(286 1427.591) rotate(180)" opacity="0.279">
      <path id="Path_1307" data-name="Path 1307" d="M721.789-6.63a1.6,1.6,0,0,1-1.6,1.6,1.6,1.6,0,0,1-1.6-1.6,1.6,1.6,0,0,1,1.6-1.6A1.6,1.6,0,0,1,721.789-6.63Z" transform="translate(-718.592 8.229)" fill="#274f60"/>
      <path id="Path_1308" data-name="Path 1308" d="M758.739-6.63a1.6,1.6,0,0,1-1.6,1.6,1.6,1.6,0,0,1-1.6-1.6,1.6,1.6,0,0,1,1.6-1.6A1.6,1.6,0,0,1,758.739-6.63Z" transform="translate(-744.355 8.229)" fill="#274f60"/>
      <circle id="Ellipse_7" data-name="Ellipse 7" cx="1.599" cy="1.599" r="1.599" transform="translate(22.375)" fill="#274f60"/>
      <circle id="Ellipse_8" data-name="Ellipse 8" cx="1.599" cy="1.599" r="1.599" transform="translate(33.562)" fill="#274f60"/>
      <circle id="Ellipse_9" data-name="Ellipse 9" cx="1.599" cy="1.599" r="1.599" transform="translate(44.749)" fill="#274f60"/>
      <circle id="Ellipse_10" data-name="Ellipse 10" cx="1.599" cy="1.599" r="1.599" transform="translate(55.937)" fill="#274f60"/>
      <path id="Path_1309" data-name="Path 1309" d="M943.487-6.63a1.6,1.6,0,0,1-1.6,1.6,1.6,1.6,0,0,1-1.6-1.6,1.6,1.6,0,0,1,1.6-1.6A1.6,1.6,0,0,1,943.487-6.63Z" transform="translate(-873.166 8.229)" fill="#274f60"/>
      <circle id="Ellipse_11" data-name="Ellipse 11" cx="1.599" cy="1.599" r="1.599" transform="translate(78.311)" fill="#274f60"/>
      <circle id="Ellipse_12" data-name="Ellipse 12" cx="1.599" cy="1.599" r="1.599" transform="translate(89.498)" fill="#274f60"/>
      <path id="Path_1310" data-name="Path 1310" d="M1054.336-6.63a1.6,1.6,0,0,1-1.6,1.6,1.6,1.6,0,0,1-1.6-1.6,1.6,1.6,0,0,1,1.6-1.6A1.6,1.6,0,0,1,1054.336-6.63Z" transform="translate(-950.453 8.229)" fill="#274f60"/>
      <path id="Path_1311" data-name="Path 1311" d="M1091.285-6.63a1.6,1.6,0,0,1-1.6,1.6,1.6,1.6,0,0,1-1.6-1.6,1.6,1.6,0,0,1,1.6-1.6A1.6,1.6,0,0,1,1091.285-6.63Z" transform="translate(-976.215 8.229)" fill="#274f60"/>
      <path id="Path_1312" data-name="Path 1312" d="M1128.235-6.63a1.6,1.6,0,0,1-1.6,1.6,1.6,1.6,0,0,1-1.6-1.6,1.6,1.6,0,0,1,1.6-1.6A1.6,1.6,0,0,1,1128.235-6.63Z" transform="translate(-1001.978 8.229)" fill="#274f60"/>
      <circle id="Ellipse_13" data-name="Ellipse 13" cx="1.599" cy="1.599" r="1.599" transform="translate(134.248)" fill="#274f60"/>
      <circle id="Ellipse_14" data-name="Ellipse 14" cx="1.599" cy="1.599" r="1.599" transform="translate(145.435)" fill="#274f60"/>
      <path id="Path_1313" data-name="Path 1313" d="M721.789,25.359a1.6,1.6,0,1,1-1.6-1.6A1.6,1.6,0,0,1,721.789,25.359Z" transform="translate(-718.592 -14.075)" fill="#274f60"/>
      <path id="Path_1314" data-name="Path 1314" d="M758.739,25.359a1.6,1.6,0,1,1-1.6-1.6A1.6,1.6,0,0,1,758.739,25.359Z" transform="translate(-744.355 -14.075)" fill="#274f60"/>
      <circle id="Ellipse_15" data-name="Ellipse 15" cx="1.599" cy="1.599" r="1.599" transform="translate(22.375 9.685)" fill="#274f60"/>
      <circle id="Ellipse_16" data-name="Ellipse 16" cx="1.599" cy="1.599" r="1.599" transform="translate(33.562 9.685)" fill="#274f60"/>
      <circle id="Ellipse_17" data-name="Ellipse 17" cx="1.599" cy="1.599" r="1.599" transform="translate(44.749 9.685)" fill="#274f60"/>
      <circle id="Ellipse_18" data-name="Ellipse 18" cx="1.599" cy="1.599" r="1.599" transform="translate(55.937 9.685)" fill="#274f60"/>
      <path id="Path_1315" data-name="Path 1315" d="M943.487,25.359a1.6,1.6,0,1,1-1.6-1.6A1.6,1.6,0,0,1,943.487,25.359Z" transform="translate(-873.166 -14.075)" fill="#274f60"/>
      <circle id="Ellipse_19" data-name="Ellipse 19" cx="1.599" cy="1.599" r="1.599" transform="translate(78.311 9.685)" fill="#274f60"/>
      <circle id="Ellipse_20" data-name="Ellipse 20" cx="1.599" cy="1.599" r="1.599" transform="translate(89.498 9.685)" fill="#274f60"/>
      <path id="Path_1316" data-name="Path 1316" d="M1054.336,25.359a1.6,1.6,0,1,1-1.6-1.6A1.6,1.6,0,0,1,1054.336,25.359Z" transform="translate(-950.453 -14.075)" fill="#274f60"/>
      <path id="Path_1317" data-name="Path 1317" d="M1091.285,25.359a1.6,1.6,0,1,1-1.6-1.6A1.6,1.6,0,0,1,1091.285,25.359Z" transform="translate(-976.215 -14.075)" fill="#274f60"/>
      <path id="Path_1318" data-name="Path 1318" d="M1128.235,25.359a1.6,1.6,0,1,1-1.6-1.6A1.6,1.6,0,0,1,1128.235,25.359Z" transform="translate(-1001.978 -14.075)" fill="#274f60"/>
      <circle id="Ellipse_21" data-name="Ellipse 21" cx="1.599" cy="1.599" r="1.599" transform="translate(134.248 9.685)" fill="#274f60"/>
      <circle id="Ellipse_22" data-name="Ellipse 22" cx="1.599" cy="1.599" r="1.599" transform="translate(145.435 9.685)" fill="#274f60"/>
      <path id="Path_1319" data-name="Path 1319" d="M721.789,57.348a1.6,1.6,0,1,1-1.6-1.6A1.6,1.6,0,0,1,721.789,57.348Z" transform="translate(-718.592 -36.378)" fill="#274f60"/>
      <path id="Path_1320" data-name="Path 1320" d="M758.739,57.348a1.6,1.6,0,1,1-1.6-1.6A1.6,1.6,0,0,1,758.739,57.348Z" transform="translate(-744.355 -36.378)" fill="#274f60"/>
      <circle id="Ellipse_23" data-name="Ellipse 23" cx="1.599" cy="1.599" r="1.599" transform="translate(22.375 19.371)" fill="#274f60"/>
      <circle id="Ellipse_24" data-name="Ellipse 24" cx="1.599" cy="1.599" r="1.599" transform="translate(33.562 19.371)" fill="#274f60"/>
      <circle id="Ellipse_25" data-name="Ellipse 25" cx="1.599" cy="1.599" r="1.599" transform="translate(44.749 19.371)" fill="#274f60"/>
      <circle id="Ellipse_26" data-name="Ellipse 26" cx="1.599" cy="1.599" r="1.599" transform="translate(55.937 19.371)" fill="#274f60"/>
      <path id="Path_1321" data-name="Path 1321" d="M943.487,57.348a1.6,1.6,0,1,1-1.6-1.6A1.6,1.6,0,0,1,943.487,57.348Z" transform="translate(-873.166 -36.378)" fill="#274f60"/>
      <circle id="Ellipse_27" data-name="Ellipse 27" cx="1.599" cy="1.599" r="1.599" transform="translate(78.311 19.371)" fill="#274f60"/>
      <circle id="Ellipse_28" data-name="Ellipse 28" cx="1.599" cy="1.599" r="1.599" transform="translate(89.498 19.371)" fill="#274f60"/>
      <path id="Path_1322" data-name="Path 1322" d="M1054.336,57.348a1.6,1.6,0,1,1-1.6-1.6A1.6,1.6,0,0,1,1054.336,57.348Z" transform="translate(-950.453 -36.378)" fill="#274f60"/>
      <path id="Path_1323" data-name="Path 1323" d="M1091.285,57.348a1.6,1.6,0,1,1-1.6-1.6A1.6,1.6,0,0,1,1091.285,57.348Z" transform="translate(-976.215 -36.378)" fill="#274f60"/>
      <path id="Path_1324" data-name="Path 1324" d="M1128.235,57.348a1.6,1.6,0,1,1-1.6-1.6A1.6,1.6,0,0,1,1128.235,57.348Z" transform="translate(-1001.978 -36.378)" fill="#274f60"/>
      <circle id="Ellipse_29" data-name="Ellipse 29" cx="1.599" cy="1.599" r="1.599" transform="translate(134.248 19.371)" fill="#274f60"/>
      <circle id="Ellipse_30" data-name="Ellipse 30" cx="1.599" cy="1.599" r="1.599" transform="translate(145.435 19.371)" fill="#274f60"/>
      <path id="Path_1325" data-name="Path 1325" d="M721.789,89.336a1.6,1.6,0,1,1-1.6-1.6A1.6,1.6,0,0,1,721.789,89.336Z" transform="translate(-718.592 -58.681)" fill="#274f60"/>
      <path id="Path_1326" data-name="Path 1326" d="M758.739,89.336a1.6,1.6,0,1,1-1.6-1.6A1.6,1.6,0,0,1,758.739,89.336Z" transform="translate(-744.355 -58.681)" fill="#274f60"/>
      <circle id="Ellipse_31" data-name="Ellipse 31" cx="1.599" cy="1.599" r="1.599" transform="translate(22.375 29.056)" fill="#274f60"/>
      <circle id="Ellipse_32" data-name="Ellipse 32" cx="1.599" cy="1.599" r="1.599" transform="translate(33.562 29.056)" fill="#274f60"/>
      <circle id="Ellipse_33" data-name="Ellipse 33" cx="1.599" cy="1.599" r="1.599" transform="translate(44.749 29.056)" fill="#274f60"/>
      <circle id="Ellipse_34" data-name="Ellipse 34" cx="1.599" cy="1.599" r="1.599" transform="translate(55.937 29.056)" fill="#274f60"/>
      <path id="Path_1327" data-name="Path 1327" d="M943.487,89.336a1.6,1.6,0,1,1-1.6-1.6A1.6,1.6,0,0,1,943.487,89.336Z" transform="translate(-873.166 -58.681)" fill="#274f60"/>
      <circle id="Ellipse_35" data-name="Ellipse 35" cx="1.599" cy="1.599" r="1.599" transform="translate(78.311 29.056)" fill="#274f60"/>
      <circle id="Ellipse_36" data-name="Ellipse 36" cx="1.599" cy="1.599" r="1.599" transform="translate(89.498 29.056)" fill="#274f60"/>
      <path id="Path_1328" data-name="Path 1328" d="M1054.336,89.336a1.6,1.6,0,1,1-1.6-1.6A1.6,1.6,0,0,1,1054.336,89.336Z" transform="translate(-950.453 -58.681)" fill="#274f60"/>
      <path id="Path_1329" data-name="Path 1329" d="M1091.285,89.336a1.6,1.6,0,1,1-1.6-1.6A1.6,1.6,0,0,1,1091.285,89.336Z" transform="translate(-976.215 -58.681)" fill="#274f60"/>
      <path id="Path_1330" data-name="Path 1330" d="M1128.235,89.336a1.6,1.6,0,1,1-1.6-1.6A1.6,1.6,0,0,1,1128.235,89.336Z" transform="translate(-1001.978 -58.681)" fill="#274f60"/>
      <circle id="Ellipse_37" data-name="Ellipse 37" cx="1.599" cy="1.599" r="1.599" transform="translate(134.248 29.056)" fill="#274f60"/>
      <circle id="Ellipse_38" data-name="Ellipse 38" cx="1.599" cy="1.599" r="1.599" transform="translate(145.435 29.056)" fill="#274f60"/>
      <path id="Path_1331" data-name="Path 1331" d="M721.789,121.325a1.6,1.6,0,1,1-1.6-1.6A1.6,1.6,0,0,1,721.789,121.325Z" transform="translate(-718.592 -80.985)" fill="#274f60"/>
      <path id="Path_1332" data-name="Path 1332" d="M758.739,121.325a1.6,1.6,0,1,1-1.6-1.6A1.6,1.6,0,0,1,758.739,121.325Z" transform="translate(-744.355 -80.985)" fill="#274f60"/>
      <circle id="Ellipse_39" data-name="Ellipse 39" cx="1.599" cy="1.599" r="1.599" transform="matrix(0.1, -0.995, 0.995, 0.1, 22.223, 41.771)" fill="#274f60"/>
      <circle id="Ellipse_40" data-name="Ellipse 40" cx="1.599" cy="1.599" r="1.599" transform="matrix(0.1, -0.995, 0.995, 0.1, 33.411, 41.771)" fill="#274f60"/>
      <circle id="Ellipse_41" data-name="Ellipse 41" cx="1.599" cy="1.599" r="1.599" transform="matrix(0.1, -0.995, 0.995, 0.1, 44.598, 41.771)" fill="#274f60"/>
      <circle id="Ellipse_42" data-name="Ellipse 42" cx="1.599" cy="1.599" r="1.599" transform="matrix(0.1, -0.995, 0.995, 0.1, 55.785, 41.771)" fill="#274f60"/>
      <path id="Path_1333" data-name="Path 1333" d="M943.487,121.325a1.6,1.6,0,1,1-1.6-1.6A1.6,1.6,0,0,1,943.487,121.325Z" transform="translate(-873.166 -80.985)" fill="#274f60"/>
      <circle id="Ellipse_43" data-name="Ellipse 43" cx="1.599" cy="1.599" r="1.599" transform="matrix(0.1, -0.995, 0.995, 0.1, 78.16, 41.771)" fill="#274f60"/>
      <circle id="Ellipse_44" data-name="Ellipse 44" cx="1.599" cy="1.599" r="1.599" transform="matrix(0.1, -0.995, 0.995, 0.1, 89.347, 41.771)" fill="#274f60"/>
      <path id="Path_1334" data-name="Path 1334" d="M1054.336,121.325a1.6,1.6,0,1,1-1.6-1.6A1.6,1.6,0,0,1,1054.336,121.325Z" transform="translate(-950.453 -80.985)" fill="#274f60"/>
      <path id="Path_1335" data-name="Path 1335" d="M1091.285,121.325a1.6,1.6,0,1,1-1.6-1.6A1.6,1.6,0,0,1,1091.285,121.325Z" transform="translate(-976.215 -80.985)" fill="#274f60"/>
      <path id="Path_1336" data-name="Path 1336" d="M1128.235,121.325a1.6,1.6,0,1,1-1.6-1.6A1.6,1.6,0,0,1,1128.235,121.325Z" transform="translate(-1001.978 -80.985)" fill="#274f60"/>
      <circle id="Ellipse_45" data-name="Ellipse 45" cx="1.599" cy="1.599" r="1.599" transform="translate(134.096 41.771) rotate(-84.262)" fill="#274f60"/>
      <circle id="Ellipse_46" data-name="Ellipse 46" cx="1.599" cy="1.599" r="1.599" transform="matrix(0.1, -0.995, 0.995, 0.1, 145.284, 41.771)" fill="#274f60"/>
    </g>
    <g id="Group_1088" data-name="Group 1088" transform="translate(286 1477.591) rotate(180)" opacity="0.279">
      <path id="Path_1307-2" data-name="Path 1307" d="M721.789-6.63a1.6,1.6,0,0,1-1.6,1.6,1.6,1.6,0,0,1-1.6-1.6,1.6,1.6,0,0,1,1.6-1.6A1.6,1.6,0,0,1,721.789-6.63Z" transform="translate(-718.592 8.229)" fill="#274f60"/>
      <path id="Path_1308-2" data-name="Path 1308" d="M758.739-6.63a1.6,1.6,0,0,1-1.6,1.6,1.6,1.6,0,0,1-1.6-1.6,1.6,1.6,0,0,1,1.6-1.6A1.6,1.6,0,0,1,758.739-6.63Z" transform="translate(-744.355 8.229)" fill="#274f60"/>
      <circle id="Ellipse_7-2" data-name="Ellipse 7" cx="1.599" cy="1.599" r="1.599" transform="translate(22.375)" fill="#274f60"/>
      <circle id="Ellipse_8-2" data-name="Ellipse 8" cx="1.599" cy="1.599" r="1.599" transform="translate(33.562)" fill="#274f60"/>
      <circle id="Ellipse_9-2" data-name="Ellipse 9" cx="1.599" cy="1.599" r="1.599" transform="translate(44.749)" fill="#274f60"/>
      <circle id="Ellipse_10-2" data-name="Ellipse 10" cx="1.599" cy="1.599" r="1.599" transform="translate(55.937)" fill="#274f60"/>
      <path id="Path_1309-2" data-name="Path 1309" d="M943.487-6.63a1.6,1.6,0,0,1-1.6,1.6,1.6,1.6,0,0,1-1.6-1.6,1.6,1.6,0,0,1,1.6-1.6A1.6,1.6,0,0,1,943.487-6.63Z" transform="translate(-873.166 8.229)" fill="#274f60"/>
      <circle id="Ellipse_11-2" data-name="Ellipse 11" cx="1.599" cy="1.599" r="1.599" transform="translate(78.311)" fill="#274f60"/>
      <circle id="Ellipse_12-2" data-name="Ellipse 12" cx="1.599" cy="1.599" r="1.599" transform="translate(89.498)" fill="#274f60"/>
      <path id="Path_1310-2" data-name="Path 1310" d="M1054.336-6.63a1.6,1.6,0,0,1-1.6,1.6,1.6,1.6,0,0,1-1.6-1.6,1.6,1.6,0,0,1,1.6-1.6A1.6,1.6,0,0,1,1054.336-6.63Z" transform="translate(-950.453 8.229)" fill="#274f60"/>
      <path id="Path_1311-2" data-name="Path 1311" d="M1091.285-6.63a1.6,1.6,0,0,1-1.6,1.6,1.6,1.6,0,0,1-1.6-1.6,1.6,1.6,0,0,1,1.6-1.6A1.6,1.6,0,0,1,1091.285-6.63Z" transform="translate(-976.215 8.229)" fill="#274f60"/>
      <path id="Path_1312-2" data-name="Path 1312" d="M1128.235-6.63a1.6,1.6,0,0,1-1.6,1.6,1.6,1.6,0,0,1-1.6-1.6,1.6,1.6,0,0,1,1.6-1.6A1.6,1.6,0,0,1,1128.235-6.63Z" transform="translate(-1001.978 8.229)" fill="#274f60"/>
      <circle id="Ellipse_13-2" data-name="Ellipse 13" cx="1.599" cy="1.599" r="1.599" transform="translate(134.248)" fill="#274f60"/>
      <circle id="Ellipse_14-2" data-name="Ellipse 14" cx="1.599" cy="1.599" r="1.599" transform="translate(145.435)" fill="#274f60"/>
      <path id="Path_1313-2" data-name="Path 1313" d="M721.789,25.359a1.6,1.6,0,1,1-1.6-1.6A1.6,1.6,0,0,1,721.789,25.359Z" transform="translate(-718.592 -14.075)" fill="#274f60"/>
      <path id="Path_1314-2" data-name="Path 1314" d="M758.739,25.359a1.6,1.6,0,1,1-1.6-1.6A1.6,1.6,0,0,1,758.739,25.359Z" transform="translate(-744.355 -14.075)" fill="#274f60"/>
      <circle id="Ellipse_15-2" data-name="Ellipse 15" cx="1.599" cy="1.599" r="1.599" transform="translate(22.375 9.685)" fill="#274f60"/>
      <circle id="Ellipse_16-2" data-name="Ellipse 16" cx="1.599" cy="1.599" r="1.599" transform="translate(33.562 9.685)" fill="#274f60"/>
      <circle id="Ellipse_17-2" data-name="Ellipse 17" cx="1.599" cy="1.599" r="1.599" transform="translate(44.749 9.685)" fill="#274f60"/>
      <circle id="Ellipse_18-2" data-name="Ellipse 18" cx="1.599" cy="1.599" r="1.599" transform="translate(55.937 9.685)" fill="#274f60"/>
      <path id="Path_1315-2" data-name="Path 1315" d="M943.487,25.359a1.6,1.6,0,1,1-1.6-1.6A1.6,1.6,0,0,1,943.487,25.359Z" transform="translate(-873.166 -14.075)" fill="#274f60"/>
      <circle id="Ellipse_19-2" data-name="Ellipse 19" cx="1.599" cy="1.599" r="1.599" transform="translate(78.311 9.685)" fill="#274f60"/>
      <circle id="Ellipse_20-2" data-name="Ellipse 20" cx="1.599" cy="1.599" r="1.599" transform="translate(89.498 9.685)" fill="#274f60"/>
      <path id="Path_1316-2" data-name="Path 1316" d="M1054.336,25.359a1.6,1.6,0,1,1-1.6-1.6A1.6,1.6,0,0,1,1054.336,25.359Z" transform="translate(-950.453 -14.075)" fill="#274f60"/>
      <path id="Path_1317-2" data-name="Path 1317" d="M1091.285,25.359a1.6,1.6,0,1,1-1.6-1.6A1.6,1.6,0,0,1,1091.285,25.359Z" transform="translate(-976.215 -14.075)" fill="#274f60"/>
      <path id="Path_1318-2" data-name="Path 1318" d="M1128.235,25.359a1.6,1.6,0,1,1-1.6-1.6A1.6,1.6,0,0,1,1128.235,25.359Z" transform="translate(-1001.978 -14.075)" fill="#274f60"/>
      <circle id="Ellipse_21-2" data-name="Ellipse 21" cx="1.599" cy="1.599" r="1.599" transform="translate(134.248 9.685)" fill="#274f60"/>
      <circle id="Ellipse_22-2" data-name="Ellipse 22" cx="1.599" cy="1.599" r="1.599" transform="translate(145.435 9.685)" fill="#274f60"/>
      <path id="Path_1319-2" data-name="Path 1319" d="M721.789,57.348a1.6,1.6,0,1,1-1.6-1.6A1.6,1.6,0,0,1,721.789,57.348Z" transform="translate(-718.592 -36.378)" fill="#274f60"/>
      <path id="Path_1320-2" data-name="Path 1320" d="M758.739,57.348a1.6,1.6,0,1,1-1.6-1.6A1.6,1.6,0,0,1,758.739,57.348Z" transform="translate(-744.355 -36.378)" fill="#274f60"/>
      <circle id="Ellipse_23-2" data-name="Ellipse 23" cx="1.599" cy="1.599" r="1.599" transform="translate(22.375 19.371)" fill="#274f60"/>
      <circle id="Ellipse_24-2" data-name="Ellipse 24" cx="1.599" cy="1.599" r="1.599" transform="translate(33.562 19.371)" fill="#274f60"/>
      <circle id="Ellipse_25-2" data-name="Ellipse 25" cx="1.599" cy="1.599" r="1.599" transform="translate(44.749 19.371)" fill="#274f60"/>
      <circle id="Ellipse_26-2" data-name="Ellipse 26" cx="1.599" cy="1.599" r="1.599" transform="translate(55.937 19.371)" fill="#274f60"/>
      <path id="Path_1321-2" data-name="Path 1321" d="M943.487,57.348a1.6,1.6,0,1,1-1.6-1.6A1.6,1.6,0,0,1,943.487,57.348Z" transform="translate(-873.166 -36.378)" fill="#274f60"/>
      <circle id="Ellipse_27-2" data-name="Ellipse 27" cx="1.599" cy="1.599" r="1.599" transform="translate(78.311 19.371)" fill="#274f60"/>
      <circle id="Ellipse_28-2" data-name="Ellipse 28" cx="1.599" cy="1.599" r="1.599" transform="translate(89.498 19.371)" fill="#274f60"/>
      <path id="Path_1322-2" data-name="Path 1322" d="M1054.336,57.348a1.6,1.6,0,1,1-1.6-1.6A1.6,1.6,0,0,1,1054.336,57.348Z" transform="translate(-950.453 -36.378)" fill="#274f60"/>
      <path id="Path_1323-2" data-name="Path 1323" d="M1091.285,57.348a1.6,1.6,0,1,1-1.6-1.6A1.6,1.6,0,0,1,1091.285,57.348Z" transform="translate(-976.215 -36.378)" fill="#274f60"/>
      <path id="Path_1324-2" data-name="Path 1324" d="M1128.235,57.348a1.6,1.6,0,1,1-1.6-1.6A1.6,1.6,0,0,1,1128.235,57.348Z" transform="translate(-1001.978 -36.378)" fill="#274f60"/>
      <circle id="Ellipse_29-2" data-name="Ellipse 29" cx="1.599" cy="1.599" r="1.599" transform="translate(134.248 19.371)" fill="#274f60"/>
      <circle id="Ellipse_30-2" data-name="Ellipse 30" cx="1.599" cy="1.599" r="1.599" transform="translate(145.435 19.371)" fill="#274f60"/>
      <path id="Path_1325-2" data-name="Path 1325" d="M721.789,89.336a1.6,1.6,0,1,1-1.6-1.6A1.6,1.6,0,0,1,721.789,89.336Z" transform="translate(-718.592 -58.681)" fill="#274f60"/>
      <path id="Path_1326-2" data-name="Path 1326" d="M758.739,89.336a1.6,1.6,0,1,1-1.6-1.6A1.6,1.6,0,0,1,758.739,89.336Z" transform="translate(-744.355 -58.681)" fill="#274f60"/>
      <circle id="Ellipse_31-2" data-name="Ellipse 31" cx="1.599" cy="1.599" r="1.599" transform="translate(22.375 29.056)" fill="#274f60"/>
      <circle id="Ellipse_32-2" data-name="Ellipse 32" cx="1.599" cy="1.599" r="1.599" transform="translate(33.562 29.056)" fill="#274f60"/>
      <circle id="Ellipse_33-2" data-name="Ellipse 33" cx="1.599" cy="1.599" r="1.599" transform="translate(44.749 29.056)" fill="#274f60"/>
      <circle id="Ellipse_34-2" data-name="Ellipse 34" cx="1.599" cy="1.599" r="1.599" transform="translate(55.937 29.056)" fill="#274f60"/>
      <path id="Path_1327-2" data-name="Path 1327" d="M943.487,89.336a1.6,1.6,0,1,1-1.6-1.6A1.6,1.6,0,0,1,943.487,89.336Z" transform="translate(-873.166 -58.681)" fill="#274f60"/>
      <circle id="Ellipse_35-2" data-name="Ellipse 35" cx="1.599" cy="1.599" r="1.599" transform="translate(78.311 29.056)" fill="#274f60"/>
      <circle id="Ellipse_36-2" data-name="Ellipse 36" cx="1.599" cy="1.599" r="1.599" transform="translate(89.498 29.056)" fill="#274f60"/>
      <path id="Path_1328-2" data-name="Path 1328" d="M1054.336,89.336a1.6,1.6,0,1,1-1.6-1.6A1.6,1.6,0,0,1,1054.336,89.336Z" transform="translate(-950.453 -58.681)" fill="#274f60"/>
      <path id="Path_1329-2" data-name="Path 1329" d="M1091.285,89.336a1.6,1.6,0,1,1-1.6-1.6A1.6,1.6,0,0,1,1091.285,89.336Z" transform="translate(-976.215 -58.681)" fill="#274f60"/>
      <path id="Path_1330-2" data-name="Path 1330" d="M1128.235,89.336a1.6,1.6,0,1,1-1.6-1.6A1.6,1.6,0,0,1,1128.235,89.336Z" transform="translate(-1001.978 -58.681)" fill="#274f60"/>
      <circle id="Ellipse_37-2" data-name="Ellipse 37" cx="1.599" cy="1.599" r="1.599" transform="translate(134.248 29.056)" fill="#274f60"/>
      <circle id="Ellipse_38-2" data-name="Ellipse 38" cx="1.599" cy="1.599" r="1.599" transform="translate(145.435 29.056)" fill="#274f60"/>
      <path id="Path_1331-2" data-name="Path 1331" d="M721.789,121.325a1.6,1.6,0,1,1-1.6-1.6A1.6,1.6,0,0,1,721.789,121.325Z" transform="translate(-718.592 -80.985)" fill="#274f60"/>
      <path id="Path_1332-2" data-name="Path 1332" d="M758.739,121.325a1.6,1.6,0,1,1-1.6-1.6A1.6,1.6,0,0,1,758.739,121.325Z" transform="translate(-744.355 -80.985)" fill="#274f60"/>
      <circle id="Ellipse_39-2" data-name="Ellipse 39" cx="1.599" cy="1.599" r="1.599" transform="matrix(0.1, -0.995, 0.995, 0.1, 22.223, 41.771)" fill="#274f60"/>
      <circle id="Ellipse_40-2" data-name="Ellipse 40" cx="1.599" cy="1.599" r="1.599" transform="matrix(0.1, -0.995, 0.995, 0.1, 33.411, 41.771)" fill="#274f60"/>
      <circle id="Ellipse_41-2" data-name="Ellipse 41" cx="1.599" cy="1.599" r="1.599" transform="matrix(0.1, -0.995, 0.995, 0.1, 44.598, 41.771)" fill="#274f60"/>
      <circle id="Ellipse_42-2" data-name="Ellipse 42" cx="1.599" cy="1.599" r="1.599" transform="matrix(0.1, -0.995, 0.995, 0.1, 55.785, 41.771)" fill="#274f60"/>
      <path id="Path_1333-2" data-name="Path 1333" d="M943.487,121.325a1.6,1.6,0,1,1-1.6-1.6A1.6,1.6,0,0,1,943.487,121.325Z" transform="translate(-873.166 -80.985)" fill="#274f60"/>
      <circle id="Ellipse_43-2" data-name="Ellipse 43" cx="1.599" cy="1.599" r="1.599" transform="matrix(0.1, -0.995, 0.995, 0.1, 78.16, 41.771)" fill="#274f60"/>
      <circle id="Ellipse_44-2" data-name="Ellipse 44" cx="1.599" cy="1.599" r="1.599" transform="matrix(0.1, -0.995, 0.995, 0.1, 89.347, 41.771)" fill="#274f60"/>
      <path id="Path_1334-2" data-name="Path 1334" d="M1054.336,121.325a1.6,1.6,0,1,1-1.6-1.6A1.6,1.6,0,0,1,1054.336,121.325Z" transform="translate(-950.453 -80.985)" fill="#274f60"/>
      <path id="Path_1335-2" data-name="Path 1335" d="M1091.285,121.325a1.6,1.6,0,1,1-1.6-1.6A1.6,1.6,0,0,1,1091.285,121.325Z" transform="translate(-976.215 -80.985)" fill="#274f60"/>
      <path id="Path_1336-2" data-name="Path 1336" d="M1128.235,121.325a1.6,1.6,0,1,1-1.6-1.6A1.6,1.6,0,0,1,1128.235,121.325Z" transform="translate(-1001.978 -80.985)" fill="#274f60"/>
      <circle id="Ellipse_45-2" data-name="Ellipse 45" cx="1.599" cy="1.599" r="1.599" transform="translate(134.096 41.771) rotate(-84.262)" fill="#274f60"/>
      <circle id="Ellipse_46-2" data-name="Ellipse 46" cx="1.599" cy="1.599" r="1.599" transform="matrix(0.1, -0.995, 0.995, 0.1, 145.284, 41.771)" fill="#274f60"/>
    </g>
  </g>
</svg>
