<svg xmlns="http://www.w3.org/2000/svg" width="16" height="16" viewBox="0 0 16 16">
  <path id="Fees-icon" d="M-2-9.956c-3,0-6,.9-6,2.708v6.5C-8,1.056-4.982,2-2,2S4,1.055,4-.75v-6.5C4-9.056,1-9.956-2-9.956ZM2.5-.75C2.5-.429.953.5-2,.5S-6.5-.429-6.5-.75V-2.122A10.675,10.675,0,0,0-2-1.25a10.66,10.66,0,0,0,4.5-.872ZM2.5-4C2.5-3.679.953-2.75-2-2.75S-6.5-3.678-6.5-4V-5.372A10.67,10.67,0,0,0-2-4.5a10.66,10.66,0,0,0,4.5-.872V-4ZM-2-6c-2.953,0-4.5-.928-4.5-1.25S-4.953-8.5-2-8.5s4.5.929,4.5,1.25S.953-6-2-6Zm4-8c-3.569,0-5.778,1.245-5.778,2.138a.753.753,0,0,0,.749.751C-2.3-11.111-2.072-12.5,2-12.5c2.953,0,4.5.929,4.5,1.25,0,.059-.216.431-1.242.781a.751.751,0,0,0-.508.71.751.751,0,0,0,.75.75,3.447,3.447,0,0,0,1-.358V-8c0,.06-.221.438-1.267.79a.75.75,0,0,0-.512.711.751.751,0,0,0,.75.75A3.642,3.642,0,0,0,6.5-6.119V-4.75c0,.059-.216.431-1.242.781a.751.751,0,0,0-.508.71.751.751,0,0,0,.75.75C5.7-2.51,8-3.173,8-4.75v-6.5C8-13.055,4.981-14,2-14Z" transform="translate(8 14)" fill="#274f60" opacity="0.6"/>
</svg>
