<svg xmlns="http://www.w3.org/2000/svg" width="12.497" height="11.941" viewBox="0 0 12.497 11.941">
  <path id="list_arrow1" d="M6.057-4.785a.662.662,0,0,0,0-.93L.741-11.028a.654.654,0,0,0-.927,0l-.621.621a.658.658,0,0,0,0,.927L3.4-5.25-.807-1.02a.654.654,0,0,0,0,.927l.621.621a.654.654,0,0,0,.927,0Zm-5.25-.93-5.316-5.313a.654.654,0,0,0-.927,0l-.621.621a.654.654,0,0,0,0,.927l4.211,4.23L-6.057-1.02a.658.658,0,0,0,0,.927l.621.621a.654.654,0,0,0,.927,0L.807-4.785A.662.662,0,0,0,.807-5.715Z" transform="translate(6.249 11.22)" fill="#00b4b1"/>
</svg>
