<svg xmlns="http://www.w3.org/2000/svg" width="138.843" height="120.851" viewBox="0 0 138.843 120.851">
  <g id="regi_success" transform="translate(0.355 -0.695)">
    <path id="Path_532" data-name="Path 532" d="M229.132,31.359c3.977.387,12.3-.895,13.756-9.115s5.358-10.5,7.127-10.607" transform="translate(-113.117 -5.439)" fill="none" stroke="#f3603f" stroke-linecap="round" stroke-width="3"/>
    <path id="Path_536" data-name="Path 536" d="M39.768,0A39.768,39.768,0,1,1,0,39.768,39.768,39.768,0,0,1,39.768,0Z" transform="translate(40.926 19.683)" fill="#1f6a8a"/>
    <g id="Group_973" data-name="Group 973" transform="translate(46.425 25.182)">
      <circle id="Ellipse_29" data-name="Ellipse 29" cx="34.269" cy="34.269" r="34.269" fill="none" stroke="rgba(255,255,255,0.7)" stroke-width="2"/>
    </g>
    <path id="Path_533" data-name="Path 533" d="M159.1,96.2a4,4,0,0,1-1.2,2.875l-17.962,17.4a4.485,4.485,0,0,1-3.013,1.195,4.317,4.317,0,0,1-2.974-1.195l-9-8.7a4,4,0,0,1-1.2-2.875,4.1,4.1,0,0,1,1.236-2.875,4.572,4.572,0,0,1,2.974-1.195,4.354,4.354,0,0,1,2.975,1.158l5.987,5.787,14.988-14.488a4.354,4.354,0,0,1,2.974-1.158,4.426,4.426,0,0,1,2.974,1.232A3.947,3.947,0,0,1,159.1,96.2Z" transform="translate(-60.735 -45.454)" fill="#fff"/>
    <path id="Path_534" data-name="Path 534" d="M218.1,196.6c3.712,1.073,10.89,5.148,9.9,12.869" transform="translate(-107.635 -97.385)" fill="none" stroke="#f7b23b" stroke-linecap="round" stroke-linejoin="round" stroke-width="3"/>
    <path id="Path_535" data-name="Path 535" d="M1.578,159.02c5.7,2.146,17.979,3.685,21.53-7.325m0,0c.518-3.033,0-9.034-6.215-8.768C15.709,145.85,15.295,151.7,23.108,151.7Zm0,0a11.83,11.83,0,0,0,11.986-5.66" transform="translate(0 -70.699)" fill="none" stroke="#6e89fa" stroke-linecap="round" stroke-linejoin="round" stroke-width="3"/>
    <circle id="Ellipse_30" data-name="Ellipse 30" cx="3.812" cy="3.812" r="3.812" transform="translate(88.173 113.923)" fill="#637bfe"/>
    <circle id="Ellipse_31" data-name="Ellipse 31" cx="3.56" cy="3.56" r="3.56" transform="translate(124.459 53.812)" fill="none" stroke="#c05efd" stroke-width="1"/>
    <circle id="Ellipse_32" data-name="Ellipse 32" cx="4.174" cy="4.174" r="4.174" transform="translate(63.337 0.695)" fill="#53b175"/>
    <circle id="Ellipse_33" data-name="Ellipse 33" cx="2.204" cy="2.204" r="2.204" transform="translate(77.158 9.711)" fill="#f3603f"/>
    <circle id="Ellipse_34" data-name="Ellipse 34" cx="3.612" cy="3.612" r="3.612" transform="translate(27.164 40.678)" fill="none" stroke="#f7b23b" stroke-width="1"/>
    <circle id="Ellipse_35" data-name="Ellipse 35" cx="3.997" cy="3.997" r="3.997" transform="translate(35.653 101.21)" fill="none" stroke="#53b175" stroke-width="1"/>
    <circle id="Ellipse_36" data-name="Ellipse 36" cx="2.029" cy="2.029" r="2.029" transform="translate(82.162 115.393) rotate(180)" fill="#53b175"/>
  </g>
</svg>
