<svg xmlns="http://www.w3.org/2000/svg" width="15.972" height="16" viewBox="0 0 15.972 16">
  <path id="time_icon" d="M.75-5.875V-9.25A.75.75,0,0,0,0-10a.75.75,0,0,0-.75.75V-5.5a.75.75,0,0,0,.3.6l2,1.5a.676.676,0,0,0,.422.15.749.749,0,0,0,.6-.3.75.75,0,0,0-.15-1.05ZM-.028-14a8,8,0,0,0-8,8,8,8,0,0,0,8,8A7.975,7.975,0,0,0,7.944-6,7.958,7.958,0,0,0-.028-14ZM0,.5A6.507,6.507,0,0,1-6.5-6,6.507,6.507,0,0,1,0-12.5,6.507,6.507,0,0,1,6.5-6,6.507,6.507,0,0,1,0,.5Z" transform="translate(8.028 14)" fill="#274f60" opacity="0.6"/>
</svg>
