<svg xmlns="http://www.w3.org/2000/svg" width="59" height="59" viewBox="0 0 59 59">
  <path id="video_icon" d="M25.885-34.041a2.758,2.758,0,0,0-1.416-.4,2.719,2.719,0,0,0-2.719,2.719v19.938a2.72,2.72,0,0,0,2.719,2.719,2.721,2.721,0,0,0,1.418-.4L42.2-19.43a2.728,2.728,0,0,0,1.3-2.32,2.72,2.72,0,0,0-1.3-2.32ZM29-50.75a29,29,0,0,0-29,29,29,29,0,0,0,29,29,29,29,0,0,0,29-29A29,29,0,0,0,29-50.75ZM29,1.813A23.589,23.589,0,0,1,5.438-21.75,23.589,23.589,0,0,1,29-45.312,23.589,23.589,0,0,1,52.563-21.75,23.589,23.589,0,0,1,29,1.813Z" transform="translate(0.5 51.25)" fill="#fff" stroke="rgba(0,0,0,0)" stroke-width="1"/>
</svg>
