<svg xmlns="http://www.w3.org/2000/svg" width="15.75" height="10.5" viewBox="0 0 15.75 10.5">
  <path id="zoom_meeting_icon" d="M7.372-9.453a1.089,1.089,0,0,0-1.047-.073L3.5-8.23v-.52A1.75,1.75,0,0,0,1.75-10.5H-6.125a1.75,1.75,0,0,0-1.75,1.75v7A1.75,1.75,0,0,0-6.125,0H1.75A1.75,1.75,0,0,0,3.5-1.75v-.52l2.825,1.3a1.093,1.093,0,0,0,.456.1,1.091,1.091,0,0,0,.59-.174,1.1,1.1,0,0,0,.5-.945V-8.531A1.1,1.1,0,0,0,7.372-9.453ZM2.188-1.75a.438.438,0,0,1-.437.438H-6.125a.438.438,0,0,1-.438-.437v-7a.438.438,0,0,1,.438-.437H1.75a.438.438,0,0,1,.438.438Zm4.375-.561L3.5-3.713V-6.787l3.063-1.4Z" transform="translate(7.875 10.5)" fill="#274f60" opacity="0.6"/>
</svg>
